<svg width="278" height="575" viewBox="0 0 278 575" fill="none" xmlns="http://www.w3.org/2000/svg">
<g filter="url(#filter0_d_163_11301)">
<g filter="url(#filter1_i_163_11301)">
<path d="M221.471 119C247.971 127.5 284.471 216.5 227.971 282C156.971 344 78.5248 322.739 39.4735 272.733C-16.3743 191.629 66.4711 61.8932 66.4711 74.5C66.4711 122.406 83.1443 146.665 83.1443 146.665C80.4709 57 167.971 16 167.971 16C154.953 50.0381 197.735 93.9887 200.471 115C203.207 136.011 191.471 152.5 191.471 152.5C201.471 157.5 209.971 166 214.971 174.5C219.971 183 221.471 119 221.471 119Z" fill="#718CB1" fill-opacity="0.06"/>
</g>
<g filter="url(#filter2_bdi_163_11301)">
<path d="M227.461 137.53C241.914 137.53 277.448 226.959 209.155 292C163.626 340.781 85.0921 325.427 51.4877 282.427C3.4294 212.689 57.992 104.648 57.992 115.488C57.992 156.681 89.0673 174.025 89.0673 174.025C82.2018 88.7491 156.155 38.5 156.155 38.5C144.953 67.7684 186.082 103.925 188.436 121.992C190.79 140.059 168.562 152.706 168.562 152.706C206.142 161.74 211.2 181.614 216.621 189.924C222.041 198.235 227.461 137.53 227.461 137.53Z" fill="#42669A" fill-opacity="0.5" shape-rendering="crispEdges"/>
<path d="M227.461 137.53C241.914 137.53 277.448 226.959 209.155 292C163.626 340.781 85.0921 325.427 51.4877 282.427C3.4294 212.689 57.992 104.648 57.992 115.488C57.992 156.681 89.0673 174.025 89.0673 174.025C82.2018 88.7491 156.155 38.5 156.155 38.5C144.953 67.7684 186.082 103.925 188.436 121.992C190.79 140.059 168.562 152.706 168.562 152.706C206.142 161.74 211.2 181.614 216.621 189.924C222.041 198.235 227.461 137.53 227.461 137.53Z" stroke="url(#paint0_linear_163_11301)" stroke-opacity="0.6" shape-rendering="crispEdges"/>
</g>
<g filter="url(#filter3_bdi_163_11301)">
<path d="M77.6472 195.248C68.0875 195.248 37.4853 253.982 82.6548 297C112.768 329.264 171.81 319.523 194.036 291.084C225.822 244.958 189.734 173.5 189.734 180.67C189.734 207.915 169.181 219.386 169.181 219.386C173.722 162.984 125.155 130 125.155 130C132.564 149.358 105.016 173.022 103.458 184.971C101.901 196.921 116.603 205.286 116.603 205.286C91.7476 211.26 88.4019 224.405 84.8169 229.902C81.232 235.399 77.6472 195.248 77.6472 195.248Z" fill="#42669A" fill-opacity="0.5" shape-rendering="crispEdges"/>
<path d="M77.6472 195.248C68.0875 195.248 37.4853 253.982 82.6548 297C112.768 329.264 171.81 319.523 194.036 291.084C225.822 244.958 189.734 173.5 189.734 180.67C189.734 207.915 169.181 219.386 169.181 219.386C173.722 162.984 125.155 130 125.155 130C132.564 149.358 105.016 173.022 103.458 184.971C101.901 196.921 116.603 205.286 116.603 205.286C91.7476 211.26 88.4019 224.405 84.8169 229.902C81.232 235.399 77.6472 195.248 77.6472 195.248Z" stroke="url(#paint1_linear_163_11301)" stroke-opacity="0.6" shape-rendering="crispEdges"/>
</g>
<path opacity="0.9" d="M116.348 267.82C113.31 267.82 105.108 284.705 119.462 298.457C129.031 308.771 146.27 307.549 153.332 298.457C163.433 283.712 151.965 260.868 151.965 263.16C151.965 271.869 145.434 275.537 145.434 275.537C146.877 257.506 129.182 246.962 129.182 246.962C131.537 253.151 125.045 260.715 124.55 264.535C124.055 268.355 128.727 271.029 128.727 271.029C120.829 272.939 119.765 277.141 118.626 278.898C117.487 280.656 116.348 267.82 116.348 267.82Z" fill="#010222"/>
<g opacity="0.9" filter="url(#filter4_bdi_163_11301)">
<path d="M170.962 236.397C176.74 236.397 192.271 272 164.971 298C146.771 317.5 109.727 314 97.655 294.32C74.9713 257.342 99.655 223.667 99.655 228C99.655 244.467 115.639 250.986 115.639 250.986C112.895 216.897 140.655 195.5 140.655 195.5C136.177 207.2 154.421 222.964 155.362 230.186C156.303 237.408 147.417 242.464 147.417 242.464C162.44 246.075 164.462 254.02 166.629 257.342C168.795 260.664 170.962 236.397 170.962 236.397Z" fill="#646989" fill-opacity="0.5" shape-rendering="crispEdges"/>
<path d="M170.962 236.397C176.74 236.397 192.271 272 164.971 298C146.771 317.5 109.727 314 97.655 294.32C74.9713 257.342 99.655 223.667 99.655 228C99.655 244.467 115.639 250.986 115.639 250.986C112.895 216.897 140.655 195.5 140.655 195.5C136.177 207.2 154.421 222.964 155.362 230.186C156.303 237.408 147.417 242.464 147.417 242.464C162.44 246.075 164.462 254.02 166.629 257.342C168.795 260.664 170.962 236.397 170.962 236.397Z" fill="#D6C774" fill-opacity="0.8" shape-rendering="crispEdges"/>
<path d="M170.962 236.397C176.74 236.397 192.271 272 164.971 298C146.771 317.5 109.727 314 97.655 294.32C74.9713 257.342 99.655 223.667 99.655 228C99.655 244.467 115.639 250.986 115.639 250.986C112.895 216.897 140.655 195.5 140.655 195.5C136.177 207.2 154.421 222.964 155.362 230.186C156.303 237.408 147.417 242.464 147.417 242.464C162.44 246.075 164.462 254.02 166.629 257.342C168.795 260.664 170.962 236.397 170.962 236.397Z" stroke="url(#paint2_linear_163_11301)" shape-rendering="crispEdges"/>
</g>
<g filter="url(#filter5_bi_163_11301)">
<mask id="path-6-inside-1_163_11301" fill="white">
<path d="M109.471 340.986H166.071L156.839 532.895C156.351 543.032 147.99 551 137.841 551C127.698 551 119.339 543.04 118.845 532.909L109.471 340.986Z"/>
</mask>
<path d="M109.471 340.986H166.071L156.839 532.895C156.351 543.032 147.99 551 137.841 551C127.698 551 119.339 543.04 118.845 532.909L109.471 340.986Z" fill="url(#paint3_linear_163_11301)"/>
<path d="M109.471 340.986V340.073H108.512L108.559 341.031L109.471 340.986ZM166.071 340.986L166.983 341.03L167.029 340.073H166.071V340.986ZM109.471 341.899H166.071V340.073H109.471V341.899ZM165.159 340.942L155.927 532.851L157.75 532.938L166.983 341.03L165.159 340.942ZM119.756 532.864L110.383 340.942L108.559 341.031L117.933 532.953L119.756 532.864ZM137.841 550.087C128.185 550.087 120.227 542.509 119.756 532.864L117.933 532.953C118.451 543.571 127.211 551.913 137.841 551.913V550.087ZM155.927 532.851C155.462 542.501 147.503 550.087 137.841 550.087V551.913C148.477 551.913 157.239 543.562 157.75 532.938L155.927 532.851Z" fill="url(#paint4_linear_163_11301)" mask="url(#path-6-inside-1_163_11301)"/>
</g>
<g filter="url(#filter6_bii_163_11301)">
<path d="M46.4708 301.5H229.997V301.5C229.997 327.089 209.253 347.833 183.664 347.833H92.8036C67.2147 347.833 46.4708 327.089 46.4708 301.5V301.5Z" fill="url(#paint5_linear_163_11301)"/>
<path d="M46.9295 301.956H229.538C229.293 327.083 208.849 347.376 183.664 347.376H92.8036C67.6191 347.376 47.1744 327.083 46.9295 301.956Z" stroke="url(#paint6_linear_163_11301)" stroke-width="0.912903"/>
</g>
</g>
<defs>
<filter id="filter0_d_163_11301" x="0.13002" y="0" width="277.622" height="575" filterUnits="userSpaceOnUse" color-interpolation-filters="sRGB">
<feFlood flood-opacity="0" result="BackgroundImageFix"/>
<feColorMatrix in="SourceAlpha" type="matrix" values="0 0 0 0 0 0 0 0 0 0 0 0 0 0 0 0 0 0 127 0" result="hardAlpha"/>
<feOffset dy="4"/>
<feGaussianBlur stdDeviation="10"/>
<feComposite in2="hardAlpha" operator="out"/>
<feColorMatrix type="matrix" values="0 0 0 0 0.795833 0 0 0 0 0.851736 0 0 0 0 1 0 0 0 1 0"/>
<feBlend mode="normal" in2="BackgroundImageFix" result="effect1_dropShadow_163_11301"/>
<feBlend mode="normal" in="SourceGraphic" in2="effect1_dropShadow_163_11301" result="shape"/>
</filter>
<filter id="filter1_i_163_11301" x="20.13" y="16" width="237.622" height="307.746" filterUnits="userSpaceOnUse" color-interpolation-filters="sRGB">
<feFlood flood-opacity="0" result="BackgroundImageFix"/>
<feBlend mode="normal" in="SourceGraphic" in2="BackgroundImageFix" result="shape"/>
<feColorMatrix in="SourceAlpha" type="matrix" values="0 0 0 0 0 0 0 0 0 0 0 0 0 0 0 0 0 0 127 0" result="hardAlpha"/>
<feOffset dy="3.61371"/>
<feGaussianBlur stdDeviation="1.80686"/>
<feComposite in2="hardAlpha" operator="arithmetic" k2="-1" k3="1"/>
<feColorMatrix type="matrix" values="0 0 0 0 0 0 0 0 0 0 0 0 0 0 0 0 0 0 0.25 0"/>
<feBlend mode="normal" in2="shape" result="effect1_innerShadow_163_11301"/>
</filter>
<filter id="filter2_bdi_163_11301" x="22.9687" y="28.9665" width="235.414" height="302.013" filterUnits="userSpaceOnUse" color-interpolation-filters="sRGB">
<feFlood flood-opacity="0" result="BackgroundImageFix"/>
<feGaussianBlur in="BackgroundImageFix" stdDeviation="4.11244"/>
<feComposite in2="SourceAlpha" operator="in" result="effect1_backgroundBlur_163_11301"/>
<feColorMatrix in="SourceAlpha" type="matrix" values="0 0 0 0 0 0 0 0 0 0 0 0 0 0 0 0 0 0 127 0" result="hardAlpha"/>
<feOffset dy="4"/>
<feGaussianBlur stdDeviation="1"/>
<feComposite in2="hardAlpha" operator="out"/>
<feColorMatrix type="matrix" values="0 0 0 0 0.246944 0 0 0 0 0.336831 0 0 0 0 0.466667 0 0 0 0.71 0"/>
<feBlend mode="normal" in2="effect1_backgroundBlur_163_11301" result="effect2_dropShadow_163_11301"/>
<feBlend mode="normal" in="SourceGraphic" in2="effect2_dropShadow_163_11301" result="shape"/>
<feColorMatrix in="SourceAlpha" type="matrix" values="0 0 0 0 0 0 0 0 0 0 0 0 0 0 0 0 0 0 127 0" result="hardAlpha"/>
<feOffset dx="4.11244" dy="4.11244"/>
<feGaussianBlur stdDeviation="1.54217"/>
<feComposite in2="hardAlpha" operator="arithmetic" k2="-1" k3="1"/>
<feColorMatrix type="matrix" values="0 0 0 0 1 0 0 0 0 1 0 0 0 0 1 0 0 0 0.4 0"/>
<feBlend mode="normal" in2="shape" result="effect3_innerShadow_163_11301"/>
</filter>
<filter id="filter3_bdi_163_11301" x="52.6859" y="123.252" width="160.382" height="200.426" filterUnits="userSpaceOnUse" color-interpolation-filters="sRGB">
<feFlood flood-opacity="0" result="BackgroundImageFix"/>
<feGaussianBlur in="BackgroundImageFix" stdDeviation="2.71998"/>
<feComposite in2="SourceAlpha" operator="in" result="effect1_backgroundBlur_163_11301"/>
<feColorMatrix in="SourceAlpha" type="matrix" values="0 0 0 0 0 0 0 0 0 0 0 0 0 0 0 0 0 0 127 0" result="hardAlpha"/>
<feOffset dy="4"/>
<feGaussianBlur stdDeviation="1"/>
<feComposite in2="hardAlpha" operator="out"/>
<feColorMatrix type="matrix" values="0 0 0 0 0.246944 0 0 0 0 0.336831 0 0 0 0 0.466667 0 0 0 0.71 0"/>
<feBlend mode="normal" in2="effect1_backgroundBlur_163_11301" result="effect2_dropShadow_163_11301"/>
<feBlend mode="normal" in="SourceGraphic" in2="effect2_dropShadow_163_11301" result="shape"/>
<feColorMatrix in="SourceAlpha" type="matrix" values="0 0 0 0 0 0 0 0 0 0 0 0 0 0 0 0 0 0 127 0" result="hardAlpha"/>
<feOffset dx="2.71998" dy="2.71998"/>
<feGaussianBlur stdDeviation="1.01999"/>
<feComposite in2="hardAlpha" operator="arithmetic" k2="-1" k3="1"/>
<feColorMatrix type="matrix" values="0 0 0 0 1 0 0 0 0 1 0 0 0 0 1 0 0 0 0.4 0"/>
<feBlend mode="normal" in2="shape" result="effect3_innerShadow_163_11301"/>
</filter>
<filter id="filter4_bdi_163_11301" x="78.7272" y="185.179" width="111.224" height="135.136" filterUnits="userSpaceOnUse" color-interpolation-filters="sRGB">
<feFlood flood-opacity="0" result="BackgroundImageFix"/>
<feGaussianBlur in="BackgroundImageFix" stdDeviation="4.41997"/>
<feComposite in2="SourceAlpha" operator="in" result="effect1_backgroundBlur_163_11301"/>
<feColorMatrix in="SourceAlpha" type="matrix" values="0 0 0 0 0 0 0 0 0 0 0 0 0 0 0 0 0 0 127 0" result="hardAlpha"/>
<feOffset dy="4"/>
<feGaussianBlur stdDeviation="1"/>
<feComposite in2="hardAlpha" operator="out"/>
<feColorMatrix type="matrix" values="0 0 0 0 0.246944 0 0 0 0 0.336831 0 0 0 0 0.466667 0 0 0 0.71 0"/>
<feBlend mode="normal" in2="effect1_backgroundBlur_163_11301" result="effect2_dropShadow_163_11301"/>
<feBlend mode="normal" in="SourceGraphic" in2="effect2_dropShadow_163_11301" result="shape"/>
<feColorMatrix in="SourceAlpha" type="matrix" values="0 0 0 0 0 0 0 0 0 0 0 0 0 0 0 0 0 0 127 0" result="hardAlpha"/>
<feOffset dx="2.03999" dy="2.03999"/>
<feGaussianBlur stdDeviation="1.01999"/>
<feComposite in2="hardAlpha" operator="arithmetic" k2="-1" k3="1"/>
<feColorMatrix type="matrix" values="0 0 0 0 1 0 0 0 0 1 0 0 0 0 1 0 0 0 0.4 0"/>
<feBlend mode="normal" in2="shape" result="effect3_innerShadow_163_11301"/>
</filter>
<filter id="filter5_bi_163_11301" x="97.6031" y="329.118" width="80.3355" height="233.749" filterUnits="userSpaceOnUse" color-interpolation-filters="sRGB">
<feFlood flood-opacity="0" result="BackgroundImageFix"/>
<feGaussianBlur in="BackgroundImageFix" stdDeviation="5.93387"/>
<feComposite in2="SourceAlpha" operator="in" result="effect1_backgroundBlur_163_11301"/>
<feBlend mode="normal" in="SourceGraphic" in2="effect1_backgroundBlur_163_11301" result="shape"/>
<feColorMatrix in="SourceAlpha" type="matrix" values="0 0 0 0 0 0 0 0 0 0 0 0 0 0 0 0 0 0 127 0" result="hardAlpha"/>
<feOffset dx="8.21613" dy="-0.912903"/>
<feGaussianBlur stdDeviation="1.36935"/>
<feComposite in2="hardAlpha" operator="arithmetic" k2="-1" k3="1"/>
<feColorMatrix type="matrix" values="0 0 0 0 1 0 0 0 0 1 0 0 0 0 1 0 0 0 0.4 0"/>
<feBlend mode="normal" in2="shape" result="effect2_innerShadow_163_11301"/>
</filter>
<filter id="filter6_bii_163_11301" x="34.6031" y="289.632" width="207.262" height="70.0682" filterUnits="userSpaceOnUse" color-interpolation-filters="sRGB">
<feFlood flood-opacity="0" result="BackgroundImageFix"/>
<feGaussianBlur in="BackgroundImageFix" stdDeviation="5.93387"/>
<feComposite in2="SourceAlpha" operator="in" result="effect1_backgroundBlur_163_11301"/>
<feBlend mode="normal" in="SourceGraphic" in2="effect1_backgroundBlur_163_11301" result="shape"/>
<feColorMatrix in="SourceAlpha" type="matrix" values="0 0 0 0 0 0 0 0 0 0 0 0 0 0 0 0 0 0 127 0" result="hardAlpha"/>
<feOffset dx="2.73871" dy="2.73871"/>
<feGaussianBlur stdDeviation="1.36935"/>
<feComposite in2="hardAlpha" operator="arithmetic" k2="-1" k3="1"/>
<feColorMatrix type="matrix" values="0 0 0 0 1 0 0 0 0 1 0 0 0 0 1 0 0 0 0.4 0"/>
<feBlend mode="normal" in2="shape" result="effect2_innerShadow_163_11301"/>
<feColorMatrix in="SourceAlpha" type="matrix" values="0 0 0 0 0 0 0 0 0 0 0 0 0 0 0 0 0 0 127 0" result="hardAlpha"/>
<feOffset dx="8.21613" dy="-0.912903"/>
<feGaussianBlur stdDeviation="1.36935"/>
<feComposite in2="hardAlpha" operator="arithmetic" k2="-1" k3="1"/>
<feColorMatrix type="matrix" values="0 0 0 0 1 0 0 0 0 1 0 0 0 0 1 0 0 0 0.4 0"/>
<feBlend mode="normal" in2="effect2_innerShadow_163_11301" result="effect3_innerShadow_163_11301"/>
</filter>
<linearGradient id="paint0_linear_163_11301" x1="266.052" y1="38.8839" x2="-46.9967" y2="394.078" gradientUnits="userSpaceOnUse">
<stop stop-color="#C5CAE8"/>
<stop offset="1" stop-color="#BFB683"/>
</linearGradient>
<linearGradient id="paint1_linear_163_11301" x1="52.1231" y1="130.003" x2="259.174" y2="364.93" gradientUnits="userSpaceOnUse">
<stop stop-color="#939BC3"/>
<stop offset="1" stop-color="#BFB683"/>
</linearGradient>
<linearGradient id="paint2_linear_163_11301" x1="186.388" y1="196.963" x2="61.2469" y2="338.952" gradientUnits="userSpaceOnUse">
<stop stop-color="#D6C774"/>
<stop offset="1" stop-color="#3357EF" stop-opacity="0"/>
</linearGradient>
<linearGradient id="paint3_linear_163_11301" x1="111.953" y1="449.62" x2="169.009" y2="448.877" gradientUnits="userSpaceOnUse">
<stop stop-color="#708BB3"/>
<stop offset="0.494792" stop-color="#F8F8F8" stop-opacity="0.53"/>
<stop offset="1" stop-color="#708BB3"/>
</linearGradient>
<linearGradient id="paint4_linear_163_11301" x1="92.2844" y1="379.958" x2="242.244" y2="482.348" gradientUnits="userSpaceOnUse">
<stop stop-color="#B2B4C4"/>
<stop offset="1" stop-color="#E8E7E7" stop-opacity="0"/>
</linearGradient>
<linearGradient id="paint5_linear_163_11301" x1="54.5187" y1="325.467" x2="233.007" y2="291.277" gradientUnits="userSpaceOnUse">
<stop stop-color="#708BB3"/>
<stop offset="0.494792" stop-color="#F8F8F8" stop-opacity="0.53"/>
<stop offset="1" stop-color="#708BB3"/>
</linearGradient>
<linearGradient id="paint6_linear_163_11301" x1="34.5017" y1="301.5" x2="42.912" y2="371.877" gradientUnits="userSpaceOnUse">
<stop stop-color="#B2B4C4"/>
<stop offset="1" stop-color="#E8E7E7" stop-opacity="0"/>
</linearGradient>
</defs>
</svg>
