<svg width="24" height="24" viewBox="0 0 24 24" fill="none" xmlns="http://www.w3.org/2000/svg">
<path d="M12 10.5872L18.2928 4.29297C18.6833 3.9024 19.3165 3.90233 19.707 4.29282C20.0976 4.6833 20.0977 5.31646 19.7072 5.70703L13.4141 12.0015L19.7072 18.296C20.0977 18.6866 20.0976 19.3198 19.707 19.7102C19.3165 20.1007 18.6833 20.1006 18.2928 19.7101L12 13.4159L5.70718 19.7101C5.3167 20.1006 4.68354 20.1007 4.29297 19.7102C3.9024 19.3198 3.90233 18.6866 4.29282 18.296L10.5859 12.0015L4.29282 5.70703C3.90233 5.31646 3.9024 4.6833 4.29297 4.29282C4.68354 3.90233 5.3167 3.9024 5.70718 4.29297L12 10.5872Z" fill="white"/>
</svg>
